<?xml version="1.0" encoding="UTF-8"?>
<svg version="1.1" xmlns="http://www.w3.org/2000/svg" width="4238" height="1147">
<path d="M0 0 C1398.54 0 2797.08 0 4238 0 C4238 378.51 4238 757.02 4238 1147 C2839.46 1147 1440.92 1147 0 1147 C0 768.49 0 389.98 0 0 Z " fill="#FEFEFE" transform="translate(0,0)"/>
<path d="M0 0 C2.49755859 1.19238281 2.49755859 1.19238281 5.1484375 2.703125 C6.14182129 3.26459229 7.13520508 3.82605957 8.15869141 4.40454102 C9.22007324 5.01354248 10.28145508 5.62254395 11.375 6.25 C12.48407715 6.87898193 13.5931543 7.50796387 14.73583984 8.15600586 C17.03837525 9.46236832 19.33930633 10.77156231 21.63867188 12.08349609 C25.68712014 14.39177027 29.74545077 16.68220675 33.8046875 18.97143555 C39.48484377 22.17586581 45.15873353 25.39138497 50.83398438 28.60449219 C53.68073171 30.21595102 56.52778795 31.82686239 59.375 33.4375 C60.31947998 33.97197754 61.26395996 34.50645508 62.23706055 35.05712891 C67.20360495 37.86476317 72.17664233 40.66008636 77.16015625 43.4375 C87.52179859 49.21363669 97.83821509 55.04600435 108.0625 61.0625 C117.00791675 66.32265703 126.06125381 71.33731067 135.20458984 76.24414062 C145.24838041 81.64335624 155.11720583 87.30990639 165 93 C171.93 96.96 178.86 100.92 186 105 C186 182.22 186 259.44 186 339 C180.16196799 336.08098399 174.74731452 333.36677636 169.25 330 C167.95491936 329.21273129 166.65931275 328.42632739 165.36328125 327.640625 C164.66799316 327.21845703 163.97270508 326.79628906 163.25634766 326.36132812 C159.00127917 323.79410654 154.71795468 321.27458317 150.4375 318.75 C148.55989459 317.64192919 146.68229044 316.53385624 144.8046875 315.42578125 C143.85561523 314.86584473 142.90654297 314.3059082 141.92871094 313.72900391 C138.93313668 311.96052634 135.93901873 310.1896065 132.9453125 308.41796875 C131.95990479 307.83499023 130.97449707 307.25201172 129.95922852 306.65136719 C128.07929706 305.53909421 126.19956509 304.42648397 124.32006836 303.31347656 C123.46292236 302.80655273 122.60577637 302.29962891 121.72265625 301.77734375 C120.97765869 301.33640381 120.23266113 300.89546387 119.46508789 300.44116211 C116.8995007 298.83263142 116.8995007 298.83263142 113.38050842 297.75732422 C111.5101881 296.66963863 111.5101881 296.66963863 110 295 C108.99336981 290.50689646 109.27624898 286.01431 109.44677734 281.44165039 C109.47327481 280.03365824 109.49637808 278.62559872 109.51634216 277.21749878 C109.56470874 274.18463059 109.63335593 271.15312819 109.71656418 268.12101936 C109.84448075 263.31606386 109.90388037 258.51178191 109.94961548 253.70542908 C110.08816442 240.03881308 110.28277148 226.3747681 110.62695312 212.71166992 C110.81649778 205.16439804 110.92978999 197.61988137 110.960199 190.07024759 C110.9796735 186.07807637 111.03795777 182.09508328 111.19157028 178.1056385 C112.41677991 161.89108585 112.41677991 161.89108585 106.94558144 147.40877151 C101.99336088 143.12243231 96.52271295 140.40392799 90.4645853 138.00920105 C87.20372641 136.67394103 84.42111971 134.95580577 81.46484375 133.046875 C79.62319186 131.9465832 77.78075001 130.84761247 75.9375 129.75 C67.0011608 124.40711308 58.08518106 119.03192126 49.1875 113.625 C48.02213934 112.91722986 46.85677475 112.2094662 45.69140625 111.50170898 C40.22468093 108.18065151 34.76067384 104.85520583 29.30143738 101.52185059 C26.7856492 99.98618457 24.26869504 98.45243566 21.75161743 96.91888428 C20.5651363 96.19527948 19.37921954 95.47074828 18.19393921 94.74517822 C15.48559511 93.08731883 12.77090187 91.44718026 10.03027344 89.84301758 C7 88 7 88 4.21191406 85.9284668 C1.40994968 83.9921726 -0.66985554 82.73806958 -4 82 C-8.97386226 83.43344084 -12.93063947 86.24778316 -17.125 89.1875 C-18.35552942 89.99965269 -19.58932031 90.80688335 -20.82617188 91.609375 C-23.35308404 93.2540664 -25.86503245 94.91847962 -28.36816406 96.59912109 C-33.62260946 100.1035322 -39.0608487 103.29301307 -44.5 106.5 C-46.55711776 107.7298858 -48.61309733 108.96167722 -50.66796875 110.1953125 C-51.69970215 110.81438477 -52.73143555 111.43345703 -53.79443359 112.07128906 C-62.40052167 117.24936186 -70.97834574 122.47428486 -79.55970764 127.69319153 C-84.00122513 130.3940172 -88.44547668 133.09031134 -92.890625 135.78515625 C-94.82304902 136.95701787 -96.75544502 138.12892567 -98.68783569 139.30084229 C-99.92829021 140.05296211 -101.16886858 140.80487771 -102.40957642 141.55657959 C-104.12888242 142.59831923 -105.84765663 143.6409364 -107.56640625 144.68359375 C-109.03509155 145.57389282 -109.03509155 145.57389282 -110.53344727 146.48217773 C-112.3789064 147.61780274 -114.19704788 148.79803192 -116 150 C-116.30256574 152.80376275 -116.40647738 155.38814786 -116.38476086 158.1953373 C-116.39248572 159.48787214 -116.39248572 159.48787214 -116.40036663 160.80651879 C-116.414102 163.72585988 -116.40626859 166.64475915 -116.39872742 169.56411743 C-116.40416078 171.66537063 -116.41090976 173.76662077 -116.41886932 175.86786592 C-116.43699342 181.66678352 -116.43632553 187.46557372 -116.43273985 193.26451302 C-116.43211868 199.50859296 -116.44871088 205.75262915 -116.46325684 211.99668884 C-116.48610115 222.82319591 -116.49804209 233.64965796 -116.50238609 244.47618484 C-116.50698878 255.83427132 -116.51775883 267.19232418 -116.53681374 278.55039597 C-116.53799386 279.255909 -116.53917399 279.96142203 -116.54038988 280.68831424 C-116.54641508 284.27107934 -116.55255093 287.85384424 -116.55872939 291.43660907 C-116.60232229 316.83077737 -116.63201468 342.22494486 -116.65356445 367.61914062 C-116.67453493 392.29330655 -116.70178182 416.96745246 -116.73754883 441.64160156 C-116.73864831 442.40181297 -116.73974778 443.16202438 -116.74088058 443.94527249 C-116.75192866 451.57944399 -116.76310459 459.21361529 -116.7743742 466.84778646 C-116.79732995 482.40026276 -116.81943224 497.95274024 -116.84101868 513.50521851 C-116.84250911 514.57789743 -116.84250911 514.57789743 -116.84402964 515.67224663 C-116.91031379 563.44814829 -116.95663915 611.22407262 -117 659 C-115.85014618 659.44940948 -115.85014618 659.44940948 -114.67706299 659.90789795 C-111.66055719 661.13847496 -108.89643837 662.62360177 -106.046875 664.203125 C-105.47843872 664.51724335 -104.91000244 664.83136169 -104.32434082 665.15499878 C-102.46459999 666.18375878 -100.60726642 667.21678055 -98.75 668.25 C-97.4437892 668.97398379 -96.13747265 669.69777682 -94.83105469 670.42138672 C-83.55136217 676.67409038 -72.29718808 682.97254425 -61.05175781 689.28662109 C-55.91097139 692.17286422 -50.76829002 695.05572107 -45.625 697.9375 C-44.10712891 698.7881604 -44.10712891 698.7881604 -42.55859375 699.65600586 C-36.91218213 702.81787176 -31.26020273 705.96946324 -25.6015625 709.109375 C-24.98572296 709.45114273 -24.36988342 709.79291046 -23.73538208 710.14503479 C-20.74705823 711.80310448 -17.75801373 713.45984831 -14.76806641 715.11499023 C-13.69476074 715.70997314 -12.62145508 716.30495605 -11.515625 716.91796875 C-10.09685059 717.70337036 -10.09685059 717.70337036 -8.64941406 718.50463867 C-6 720 -6 720 -3.46777344 721.81762695 C-1.04983547 723.30155567 -1.04983547 723.30155567 1.52416992 722.34936523 C2.34119385 721.90407471 3.15821777 721.45878418 4 721 C4.74677002 720.60047119 5.49354004 720.20094238 6.26293945 719.78930664 C7.03855225 719.33418701 7.81416504 718.87906738 8.61328125 718.41015625 C9.51433594 717.88333252 10.41539062 717.35650879 11.34375 716.8137207 C12.3234375 716.23581787 13.303125 715.65791504 14.3125 715.0625 C15.35792969 714.44914795 16.40335938 713.8357959 17.48046875 713.20385742 C30.28282169 705.68079644 43.04355429 698.08698321 55.80517578 690.49511719 C62.16919297 686.70931807 68.53554705 682.92745408 74.90234375 679.14633179 C76.85307866 677.98764416 78.80351335 676.82845265 80.75390625 675.66918945 C81.33398217 675.32672432 81.91405809 674.98425919 82.51171207 674.63141632 C83.73685645 673.89965827 84.95537056 673.15655532 86.16360378 672.39719963 C89.49957813 670.33093914 92.70059752 668.67953842 96.39967346 667.35700989 C101.34856905 665.40042745 105.66961312 663.26576128 109 659 C111.88997574 650.84266912 110.9593979 641.65315446 110.62924194 633.14444256 C110.51677714 629.71521244 110.50913907 626.28584002 110.4921875 622.8550415 C110.44606316 616.36513104 110.32119358 609.87962458 110.16082954 603.39161897 C109.87386732 591.76835865 109.67563942 580.14429215 109.57556629 568.51791406 C109.54309434 565.10808981 109.48806092 561.70143478 109.38284302 558.29302216 C109.26894797 554.49676185 109.20788789 550.70281199 109.15625 546.90527344 C109.10653549 545.78306396 109.05682098 544.66085449 109.00559998 543.50463867 C108.97840944 536.04726406 108.97840944 536.04726406 111.94981956 533.0011797 C114.24136097 531.45216107 116.50978513 530.19709703 119 529 C120.04623535 528.36795654 121.0924707 527.73591309 122.17041016 527.0847168 C123.59039307 526.27514526 123.59039307 526.27514526 125.0390625 525.44921875 C126.10584229 524.83820312 127.17262207 524.2271875 128.27172852 523.59765625 C129.9315979 522.65212891 129.9315979 522.65212891 131.625 521.6875 C133.96075016 520.34959548 136.29493302 519.00897023 138.62890625 517.66796875 C139.7389502 517.03036621 140.84899414 516.39276367 141.99267578 515.73583984 C147.29271253 512.67663694 152.53358067 509.52366514 157.76708984 506.35205078 C162.38554827 503.55552522 167.00968474 500.76843896 171.63595581 497.98486328 C173.35417406 496.95004271 175.07077444 495.91253739 176.78735352 494.875 C177.83463623 494.24464844 178.88191895 493.61429688 179.9609375 492.96484375 C180.90759277 492.3937085 181.85424805 491.82257324 182.82958984 491.23413086 C185 490 185 490 186 490 C186.46764155 517.1724807 186.82009371 544.34435679 187.03624344 571.52005386 C187.13928496 584.13908817 187.27969588 596.75561954 187.50878906 609.37304688 C187.70842541 620.3733875 187.83722786 631.37191569 187.8817699 642.37401748 C187.90780338 648.19832672 187.96874229 654.01745235 188.11460114 659.84009552 C188.25095654 665.32811566 188.29213407 670.8088515 188.26215363 676.29840469 C188.26763178 678.30623982 188.30711629 680.31433192 188.3841095 682.32069778 C188.83481879 694.67763312 188.83481879 694.67763312 186 700 C181.03740969 704.99367362 174.73228838 707.9795836 168.39662886 710.87557936 C165.13948211 712.40372712 162.14849481 714.21760259 159.08984375 716.109375 C157.03940043 717.32348756 154.98861871 718.53702879 152.9375 719.75 C151.21280807 720.77101762 149.48811675 721.79203627 147.76345825 722.81311035 C146.00500715 723.85409834 144.24641126 724.89484137 142.48779297 725.93554688 C136.82365814 729.28776978 131.16200835 732.64418719 125.5 736 C123.25001058 737.33335119 121.00001057 738.6666845 118.75 740 C117.63625 740.66 116.5225 741.32 115.375 742 C112 744 108.625 746 105.25 748 C103.57877075 748.99036255 103.57877075 748.99036255 101.8737793 750.00073242 C99.62785889 751.3316422 97.38192793 752.66253418 95.13598633 753.9934082 C90.02685567 757.02094512 84.91780526 760.04861703 79.80917358 763.07699585 C68.87658799 769.55778013 57.9429288 776.03669143 47 782.5 C43.33316342 784.6663792 39.66654661 786.83313007 36 789 C35.44558228 789.32758301 34.89116455 789.65516602 34.31994629 789.99267578 C30.68638664 792.13967636 27.05350742 794.28782184 23.42138672 796.43725586 C21.67585529 797.46991396 19.92973327 798.50157359 18.18359375 799.53320312 C17.10464844 800.17193359 16.02570313 800.81066406 14.9140625 801.46875 C13.38120605 802.36980469 13.38120605 802.36980469 11.81738281 803.2890625 C8.70798729 805.17733319 5.72485811 807.21024272 2.79443359 809.36523438 C1 810 1 810 -1.35961914 809.31933594 C-4.21733502 807.89140282 -6.99870392 806.38764741 -9.76953125 804.796875 C-11.4551416 803.83177002 -11.4551416 803.83177002 -13.17480469 802.84716797 C-14.38744947 802.14825021 -15.60001254 801.44919066 -16.8125 800.75 C-18.07313855 800.02602393 -19.33388216 799.30223079 -20.59472656 798.57861328 C-31.44797634 792.34323871 -42.26286499 786.04215019 -53.06445312 779.71777344 C-58.03978549 776.80639299 -63.02014528 773.90363588 -68 771 C-73.97780303 767.51383851 -79.95505996 764.02675774 -85.9296875 760.53515625 C-96.26983528 754.49433307 -106.62347462 748.47814984 -117 742.5 C-127.35988322 736.53143808 -137.69751524 730.52597845 -148.01953125 724.4921875 C-152.15833448 722.07304231 -156.30210273 719.66267851 -160.44921875 717.2578125 C-161.51446777 716.63914307 -162.5797168 716.02047363 -163.67724609 715.38305664 C-165.69086567 714.21380254 -167.70543455 713.04618087 -169.72119141 711.88061523 C-171.52089335 710.83442661 -173.30717057 709.76460365 -175.07543325 708.66611159 C-177.91601507 706.9359184 -177.91601507 706.9359184 -180.8880868 705.96668088 C-184.52056377 704.41702517 -186.47241512 703.06885802 -189 700 C-191.27096251 692.63703276 -190.5623439 684.41038498 -190.51794434 676.79800415 C-190.54350334 674.36214408 -190.57379859 671.92632986 -190.60842943 669.49058187 C-190.68094607 663.4918685 -190.70203526 657.49487531 -190.7012894 651.49588312 C-190.70314607 644.30983245 -190.7684072 637.12470628 -190.83483464 629.93901266 C-190.97737329 614.21786318 -191.03190944 598.49700087 -191.06512396 582.77529717 C-191.06684814 581.9611077 -191.06857232 581.14691823 -191.07034874 580.30805635 C-191.07206431 579.49221412 -191.07377988 578.67637188 -191.07554744 577.83580715 C-191.09559332 568.79250816 -191.1339959 559.74930026 -191.17286682 550.70606613 C-191.28820954 523.38551209 -191.38465853 496.06504898 -191.40599823 468.74424171 C-191.40670339 467.87037927 -191.40740856 466.99651682 -191.40813509 466.09617369 C-191.41098378 462.55484781 -191.41375947 459.01352187 -191.41652506 455.47219592 C-191.41861225 452.806822 -191.42073031 450.14144811 -191.42285156 447.47607422 C-191.42353183 446.59533045 -191.42421209 445.71458669 -191.42491297 444.80715371 C-191.44779059 416.25856969 -191.59280605 387.7124682 -191.81248324 359.16476296 C-192.04440512 328.97045628 -192.17118838 298.77754958 -192.17594004 268.58232152 C-192.17684166 265.26557796 -192.17815481 261.94883481 -192.17976379 258.63209152 C-192.18010756 257.81543813 -192.18045132 256.99878474 -192.1808055 256.15738428 C-192.18872723 243.03175691 -192.29130789 229.90851639 -192.42770224 216.78366867 C-192.56240414 203.58168279 -192.58864697 190.38285719 -192.50618511 177.18041463 C-192.46433497 170.0302911 -192.46884863 162.8876776 -192.60499954 155.73852921 C-193.38817471 112.71807358 -193.38817471 112.71807358 -186.16777992 104.10573912 C-179.79932512 97.89223223 -171.91589803 94.81988296 -163.56018162 92.21805263 C-158.1846916 90.37892462 -153.63543472 87.48444758 -148.875 84.4375 C-147.10903025 83.38462824 -145.33988911 82.33704165 -143.56640625 81.296875 C-141.71086602 80.19803736 -139.85540072 79.09907319 -138 78 C-136.45094971 77.08250977 -136.45094971 77.08250977 -134.87060547 76.14648438 C-128.64336108 72.45777584 -122.41688119 68.76777857 -116.19085693 65.07701111 C-109.96098532 61.38397538 -103.73049037 57.69199172 -97.5 54 C-95.24999736 52.66667113 -92.99999736 51.33333779 -90.75 50 C-77.25 42 -77.25 42 -73.87451172 39.99975586 C-71.62608644 38.66732557 -69.37771398 37.33480613 -67.12939453 36.00219727 C-61.48073267 32.65431187 -55.83114135 29.30801423 -50.1796875 25.96484375 C-49.05385254 25.29831787 -47.92801758 24.63179199 -46.76806641 23.94506836 C-44.52398043 22.6173148 -42.2788785 21.29127672 -40.03271484 19.96704102 C-34.89043499 16.92910666 -29.76482448 13.87035737 -24.68966675 10.72166443 C-22.95005052 9.64247892 -21.20716253 8.56877365 -19.46337891 7.49633789 C-17.28617415 6.15361683 -15.11615843 4.79914707 -12.95458984 3.43139648 C-11.98215332 2.83399658 -11.0097168 2.23659668 -10.0078125 1.62109375 C-9.15848145 1.0892749 -8.30915039 0.55745605 -7.43408203 0.00952148 C-4.3974512 -1.24990364 -3.09579266 -1.02761276 0 0 Z " fill="#2C2C2C" transform="translate(532,199)"/>
<path d="M0 0 C1.81783863 0.93653161 3.60692339 1.92963947 5.375 2.95703125 C6.43235352 3.56885254 7.48970703 4.18067383 8.57910156 4.81103516 C9.70799805 5.47151855 10.83689453 6.13200195 12 6.8125 C13.17921097 7.49814389 14.35857456 8.18352536 15.53808594 8.86865234 C24.10622404 13.85464592 32.61826073 18.93234664 41.10546875 24.0546875 C46.2394729 27.15099497 51.3986287 30.20383098 56.5625 33.25 C58.41406741 34.34243959 60.26562981 35.43488769 62.1171875 36.52734375 C63.06948242 37.08921387 64.02177734 37.65108398 65.00292969 38.22998047 C70.40132377 41.4181816 75.79428642 44.61554587 81.1875 47.8125 C82.32002197 48.4837793 83.45254395 49.15505859 84.61938477 49.84667969 C86.92776623 51.21495278 89.23610929 52.58329063 91.54443359 53.95166016 C97.19590084 57.30176185 102.8479973 60.6508018 108.5 64 C110.75000264 65.33332887 113.00000264 66.66666221 115.25 68 C116.36375 68.66 117.4775 69.32 118.625 70 C128.75 76 128.75 76 132.12988281 78.00292969 C134.36356441 79.32656888 136.59728787 80.65013743 138.83105469 81.97363281 C144.0798025 85.08360411 149.32813516 88.19426604 154.57495117 91.30749512 C157.03995262 92.77005837 159.50519671 94.23221238 161.97045898 95.69433594 C163.69994318 96.72030516 165.42907839 97.74686258 167.15820312 98.7734375 C168.21458984 99.39992188 169.27097656 100.02640625 170.359375 100.671875 C171.28202148 101.2194043 172.20466797 101.76693359 173.15527344 102.33105469 C175.32245148 103.60249556 177.49558989 104.8591157 179.67779541 106.10430908 C180.77412292 106.72988708 181.87045044 107.35546509 183 108 C183.25675174 164.31226247 183.49556408 220.6245824 183.63514709 276.93727112 C183.63721795 277.77059323 183.63928881 278.60391534 183.64142242 279.46248964 C183.68631507 297.57242453 183.72786794 315.68236565 183.76597994 333.79231605 C183.78469014 342.67331299 183.80413843 351.55430824 183.82397461 360.43530273 C183.82691669 361.7609578 183.82691669 361.7609578 183.8299182 363.11339377 C183.89384917 391.76379434 184.00652612 420.41375142 184.14445831 449.06388327 C184.28593362 478.50340477 184.37827825 507.94268081 184.40872485 537.38253652 C184.41304723 541.53981056 184.41793178 545.69708377 184.42315865 549.85435677 C184.42416999 550.67257504 184.42518134 551.49079332 184.42622333 552.33380609 C184.44395575 565.50997978 184.51354262 578.68539493 184.60248051 591.86125916 C184.69076917 605.10466364 184.72452563 618.34731549 184.70252066 631.59100401 C184.69110279 639.46197877 184.72159024 647.33020107 184.81196315 655.20067914 C184.87481834 661.07560727 184.85943679 666.94862941 184.81348342 672.82377232 C184.80713169 675.20218816 184.82628639 677.58083434 184.87324774 679.958795 C185.19575812 697.29500756 185.19575812 697.29500756 181.53542335 701.80423732 C178.01005488 704.794761 174.14260591 706.63298309 169.84520692 708.26031817 C167.11874954 709.35326388 164.6900693 710.86946325 162.19921875 712.4140625 C160.36262261 713.48547874 158.52536984 714.5557701 156.6875 715.625 C155.67534424 716.21490723 154.66318848 716.80481445 153.62036133 717.41259766 C146.15673872 721.75783779 138.6736227 726.06868303 131.1875 730.375 C122.29107951 735.49295123 113.4435344 740.68657416 104.625 745.9375 C94.23961775 752.11909609 83.78238963 758.15853218 73.27880859 764.13598633 C62.79183321 770.10541814 52.36607011 776.17601777 41.953125 782.2734375 C38.92974796 784.04107328 35.90290212 785.80262796 32.875 787.5625 C31.86058838 788.15272949 30.84617676 788.74295898 29.80102539 789.35107422 C27.78831462 790.52130359 25.77450211 791.68964038 23.75952148 792.85595703 C18.86287449 795.70068734 14.01317781 798.59666768 9.22265625 801.6171875 C7.85318848 802.47159424 7.85318848 802.47159424 6.45605469 803.34326172 C4.73721774 804.4204715 3.02757017 805.5125348 1.32910156 806.62158203 C0.56694336 807.09708496 -0.19521484 807.57258789 -0.98046875 808.0625 C-1.63942139 808.48660156 -2.29837402 808.91070313 -2.97729492 809.34765625 C-5.92967504 810.29983002 -7.27351065 809.38179309 -10 808 C-11.89999714 806.9779361 -13.78171476 805.92148601 -15.6484375 804.83984375 C-16.72794678 804.21601807 -17.80745605 803.59219238 -18.91967773 802.94946289 C-20.05993408 802.28551514 -21.20019043 801.62156738 -22.375 800.9375 C-23.56640416 800.24651947 -24.75789233 799.55568376 -25.94946289 798.86499023 C-32.96404923 794.79349875 -39.94669528 790.67383365 -46.88671875 786.4765625 C-52.48652033 783.09451837 -58.12078611 779.77025687 -63.75 776.4375 C-64.92179664 775.74357607 -66.09359024 775.049647 -67.26538086 774.35571289 C-69.65404201 772.94125063 -72.04281535 771.52697802 -74.43164062 770.11279297 C-80.12221782 766.74375922 -85.81098366 763.3716685 -91.5 760 C-93.74348432 758.67056403 -95.98697391 757.34113697 -98.23046875 756.01171875 C-102.21742422 753.64909985 -106.20423684 751.28624037 -110.19082642 748.92300415 C-121.12341232 742.44221969 -132.05717133 735.96347845 -143 729.5 C-144.76693953 728.45575022 -146.53386642 727.41147906 -148.30078125 726.3671875 C-151.92404095 724.22584811 -155.54850636 722.08656756 -159.17379761 719.94866943 C-161.58783432 718.52449338 -164.00091191 717.09869742 -166.41381836 715.67260742 C-168.12602889 714.6613073 -169.83936114 713.6519071 -171.55273438 712.64257812 C-172.62201172 712.01029297 -173.69128906 711.37800781 -174.79296875 710.7265625 C-176.19325317 709.90019287 -176.19325317 709.90019287 -177.62182617 709.05712891 C-179.29402222 708.0388501 -179.29402222 708.0388501 -181 707 C-182.33266246 706.4902927 -182.33266246 706.4902927 -183.69224739 705.97028828 C-187.21951279 704.3509744 -189.40584557 702.91203181 -192 700 C-194.13876426 693.70856366 -193.38620328 686.56166974 -193.2487793 680.01977539 C-193.24567516 677.95965746 -193.24742074 675.89952736 -193.25364685 673.8394165 C-193.25680132 668.25422953 -193.19216597 662.67164458 -193.11533332 657.08706212 C-193.04653625 651.24823429 -193.04010486 645.40934577 -193.02705383 639.57017517 C-192.99287343 628.51650991 -192.90261957 617.46404235 -192.79220945 606.41090435 C-192.6692283 593.8259031 -192.60877015 581.24084443 -192.55355966 568.65539181 C-192.43860193 542.76959736 -192.24513952 516.8848658 -192 491 C-187.43102457 492.45423461 -183.5538124 494.28132811 -179.5 496.8125 C-178.16854445 497.62724365 -176.83647483 498.44098432 -175.50390625 499.25390625 C-174.78348145 499.69492676 -174.06305664 500.13594727 -173.32080078 500.59033203 C-169.05048116 503.18414915 -164.74187743 505.71325449 -160.4375 508.25 C-159.51219482 508.79648193 -158.58688965 509.34296387 -157.63354492 509.90600586 C-152.78741217 512.76809834 -147.93818314 515.62484628 -143.0859375 518.4765625 C-142.11857666 519.04600586 -141.15121582 519.61544922 -140.15454102 520.20214844 C-138.32786361 521.27734761 -136.50029946 522.35104247 -134.67163086 523.42285156 C-133.02501663 524.39268676 -131.38605645 525.37569905 -129.75702858 526.3747921 C-127.01886558 528.03585636 -127.01886558 528.03585636 -124.12535667 529.41245461 C-116.56886322 533.42668793 -116.56886322 533.42668793 -115.07214737 537.56617355 C-114.80917255 540.73905591 -114.90235762 543.73109172 -115.11962891 546.90771484 C-115.15485153 548.0908728 -115.19007416 549.27403076 -115.22636414 550.49304199 C-115.32826948 553.72780028 -115.47715707 556.95690062 -115.63775301 560.1891284 C-115.7871922 563.59121435 -115.8500523 566.99449881 -115.91488647 570.39907837 C-116.14928491 581.97935244 -116.48763335 593.55256499 -117.01074219 605.12353516 C-120.20150907 635.6586805 -120.20150907 635.6586805 -112.2755127 663.24401855 C-106.09812034 669.67385978 -98.1006621 672.47119923 -89.70021057 674.81080627 C-83.7132158 676.7349391 -78.73589883 680.08942895 -73.5 683.5 C-71.46920095 684.73246877 -69.43451846 685.9585811 -67.39453125 687.17578125 C-66.36408691 687.79404785 -65.33364258 688.41231445 -64.27197266 689.04931641 C-57.64986146 692.9972845 -50.98969685 696.88052645 -44.33374023 700.77105713 C-34.79935237 706.3450411 -25.30242769 711.97798541 -15.84375 717.6796875 C-15.16957031 718.08026367 -14.49539063 718.48083984 -13.80078125 718.89355469 C-12.25197862 719.84517799 -10.75958856 720.88753577 -9.28125 721.9453125 C-7.02084379 723.30642964 -7.02084379 723.30642964 -4.63818359 722.21362305 C-2.20751722 721.09546253 0.14499903 719.91987201 2.4921875 718.63671875 C3.77838989 717.93518677 3.77838989 717.93518677 5.09057617 717.21948242 C6.46886597 716.46115112 6.46886597 716.46115112 7.875 715.6875 C8.84606689 715.15552002 9.81713379 714.62354004 10.81762695 714.07543945 C18.59511953 709.80197511 26.32520548 705.44706832 34.04296875 701.06689453 C41.46434045 696.85755418 48.91347545 692.70020604 56.375 688.5625 C65.36256234 683.5774228 74.34417992 678.58212769 83.3125 673.5625 C84.34753662 672.98363037 85.38257324 672.40476074 86.44897461 671.80834961 C90.84689019 669.34470411 95.23861799 666.87280504 99.6015625 664.34765625 C100.26373779 663.96472412 100.92591309 663.58179199 101.6081543 663.18725586 C103.2818261 662.21539599 104.95166263 661.23693897 106.62109375 660.2578125 C109 659 109 659 111 659 C111.38410626 610.71391856 111.73445674 562.427734 111.89959717 514.1403656 C111.90205303 513.42515616 111.90450889 512.70994672 111.90703917 511.97306427 C111.96020928 496.42783819 112.00713975 480.88259913 112.04764695 465.33733502 C112.06755102 457.7134121 112.08883319 450.0894933 112.11083984 442.46557617 C112.11300625 441.70692415 112.11517267 440.94827212 112.11740473 440.16663064 C112.18821074 415.59722046 112.34992864 391.0294361 112.55904083 366.46084641 C112.77353657 341.20311463 112.89582004 315.94656156 112.90288362 290.68787973 C112.90392517 287.11643728 112.90601553 283.54499615 112.90874481 279.97355461 C112.90950185 278.91923851 112.90950185 278.91923851 112.91027419 277.84362309 C112.92107641 266.55006685 113.02842801 255.25941481 113.17233961 243.96685664 C113.3151224 232.59990595 113.35285641 221.23713628 113.29186878 209.86909968 C113.26187968 203.71284844 113.27687716 197.5655443 113.41512871 191.41057777 C115.19761514 167.71263518 115.19761514 167.71263518 107.29707241 146.43073916 C101.11332398 140.49696824 93.53720847 137.30522623 85.5797019 134.41422737 C79.80333375 132.13216642 74.7260729 128.81799536 69.5 125.5 C67.44711857 124.26305603 65.39147014 123.03068262 63.33203125 121.8046875 C56.60346587 117.7673381 49.89390745 113.69898801 43.1875 109.625 C42.02596255 108.91983676 40.86442284 108.21467726 39.70288086 107.50952148 C34.17880978 104.15461827 28.65872388 100.79338935 23.14671326 97.41870117 C20.57301911 95.84355108 17.99761211 94.27121438 15.42202759 92.69915771 C14.19425043 91.94866475 12.96732336 91.19677908 11.74130249 90.44342041 C10.03927925 89.39764239 8.33415425 88.35691767 6.62890625 87.31640625 C5.66025635 86.72287354 4.69160645 86.12934082 3.69360352 85.51782227 C1.14313287 84.08065413 -1.19613112 82.84690437 -4 82 C-6.45880844 83.14147544 -8.36315711 84.27728939 -10.5625 85.8125 C-11.9941619 86.7581396 -13.4279258 87.70060118 -14.86328125 88.640625 C-15.66975098 89.17365234 -16.4762207 89.70667969 -17.30712891 90.25585938 C-21.96177932 93.27062116 -26.71639186 96.12058368 -31.46456909 98.98495483 C-33.88698113 100.44693153 -36.30628439 101.91401516 -38.72572327 103.38090515 C-40.58572267 104.50851226 -42.4461442 105.63542021 -44.30664062 106.76220703 C-49.62930771 109.98648134 -54.9480832 113.21716256 -60.26702881 116.4475708 C-62.57503884 117.84921969 -64.88327078 119.25050292 -67.1914978 120.65179443 C-72.03166465 123.59020919 -76.87147448 126.52921046 -81.71075439 129.46908569 C-84.24051766 131.00589418 -86.77040104 132.54250489 -89.30029297 134.07910156 C-90.49436309 134.80442647 -91.68837579 135.52984589 -92.88232422 136.25537109 C-95.58990208 137.90066791 -98.29834685 139.54448322 -101.00878906 141.18505859 C-102.99400147 142.38960226 -104.97518124 143.60081874 -106.95214844 144.81884766 C-107.85223633 145.36976074 -108.75232422 145.92067383 -109.6796875 146.48828125 C-110.46843262 146.97466064 -111.25717773 147.46104004 -112.06982422 147.9621582 C-114 149 -114 149 -116 149 C-116 197.18 -116 245.36 -116 295 C-123.59 299.29 -131.18 303.58 -139 308 C-144.54249617 311.29703066 -144.54249617 311.29703066 -150.06640625 314.625 C-155.95841711 318.19647935 -161.90543536 321.67586637 -167.84082031 325.17456055 C-174.15027776 328.89731675 -180.44123348 332.6489718 -186.69726562 336.4609375 C-190.89202858 339 -190.89202858 339 -192 339 C-192 261.78 -192 184.56 -192 105 C-168.12544014 91.35739437 -168.12544014 91.35739437 -158.625 86.0625 C-149.62199202 81.0328866 -140.63538108 75.97546666 -131.66235352 70.89257812 C-126.73237136 68.10219726 -121.79599316 65.32412584 -116.84765625 62.56640625 C-106.48318761 56.78934366 -96.16429901 50.95547508 -85.9375 44.9375 C-76.98926668 39.67568674 -67.93325213 34.65908921 -58.78662109 29.75146484 C-52.32467152 26.27828568 -45.9226307 22.71863395 -39.5625 19.0625 C-38.31412354 18.34743286 -38.31412354 18.34743286 -37.04052734 17.61791992 C-33.2628791 15.45284043 -29.48814934 13.28311789 -25.72167969 11.09863281 C-22.29999639 9.11694424 -18.86945481 7.15133395 -15.4375 5.1875 C-13.82113647 4.2430603 -13.82113647 4.2430603 -12.17211914 3.27954102 C-10.66186157 2.41993774 -10.66186157 2.41993774 -9.12109375 1.54296875 C-8.2283374 1.02758545 -7.33558105 0.51220215 -6.41577148 -0.01879883 C-3.59711748 -1.16363667 -2.76763382 -1.15840408 0 0 Z " fill="#2C2C2C" transform="translate(944,199)"/>
<path d="M0 0 C47.52 0 95.04 0 144 0 C144 163.68 144 327.36 144 496 C96.48 496 48.96 496 0 496 C0 432.97 0 369.94 0 305 C-34.32 305 -68.64 305 -104 305 C-104 266.72 -104 228.44 -104 189 C-69.68 189 -35.36 189 0 189 C0 126.63 0 64.26 0 0 Z " fill="#2C2C2C" transform="translate(1681,342)"/>
<path d="M0 0 C43.23 0 86.46 0 131 0 C135.50044932 11.25112329 135.50044932 11.25112329 136.91259766 15.64672852 C137.23527115 16.6453743 137.55794464 17.64402008 137.89039612 18.67292786 C138.22820602 19.73090073 138.56601593 20.7888736 138.9140625 21.87890625 C139.28131943 23.01974167 139.64857635 24.16057709 140.02696228 25.33598328 C141.0226914 28.43238475 142.01513011 31.52981509 143.00584793 34.62782288 C143.84069667 37.23649178 144.67826677 39.84428394 145.51572514 42.45211601 C152.35756933 63.76123998 159.10648723 85.09951755 165.82910156 106.4465332 C170.16999297 120.2281041 174.54043264 133.99884132 179.01000977 147.73925781 C181.09136819 154.14238993 183.10977266 160.56131689 185.08007812 166.99951172 C190.9284232 186.07492598 197.07544444 205.06502555 203.20703125 224.05078125 C203.75763718 225.7557502 203.75763718 225.7557502 204.31936646 227.49516296 C204.6948764 228.65788223 205.07038635 229.8206015 205.45727539 231.01855469 C213.67574804 256.46633029 221.79696688 281.9424042 229.82983398 307.44946289 C234.17072139 321.22998064 238.54074354 334.99979709 243.01000977 348.73925781 C245.09136819 355.14238993 247.10977266 361.56131689 249.08007812 367.99951172 C256.61680062 392.58186826 264.60865943 417.03008224 272.5 441.5 C275.30005777 450.18257842 278.09734901 458.86603511 280.88916016 467.55126953 C281.9724708 470.91453243 283.06190836 474.27576017 284.15234375 477.63671875 C284.79963723 479.64317818 285.44678186 481.64968564 286.09375 483.65625 C286.53974548 485.02227356 286.53974548 485.02227356 286.99475098 486.41589355 C287.2613855 487.24609009 287.52802002 488.07628662 287.80273438 488.93164062 C288.03553101 489.64984985 288.26832764 490.36805908 288.50817871 491.10803223 C289 493 289 493 289 496 C240.49 496 191.98 496 142 496 C138.535 484.12 138.535 484.12 135 472 C133.845 468.24625 132.69 464.4925 131.5 460.625 C128.31527524 450.22633692 125.45475823 439.75955438 122.67578125 429.24609375 C120.85958184 422.47662321 118.92548571 415.73919999 117 409 C77.4 408.67 37.8 408.34 -3 408 C-1.87555934 399.00447475 -1.87555934 399.00447475 -1.01953125 396.0546875 C-0.82818604 395.38211914 -0.63684082 394.70955078 -0.43969727 394.01660156 C-0.23272217 393.30987305 -0.02574707 392.60314453 0.1875 391.875 C0.64127405 390.28403915 1.09436867 388.69288439 1.546875 387.1015625 C1.78470703 386.27043945 2.02253906 385.43931641 2.26757812 384.58300781 C3.52513245 380.14803288 4.72953138 375.6986868 5.9375 371.25 C6.44916122 369.37107808 6.96088036 367.49217194 7.47265625 365.61328125 C8.22264454 362.85730018 8.97245202 360.10127001 9.72216797 357.34521484 C13.18733819 344.60946567 16.68145547 331.8819079 20.19677734 319.15991211 C20.51727051 317.99983643 20.83776367 316.83976074 21.16796875 315.64453125 C21.47653809 314.53029785 21.78510742 313.41606445 22.10302734 312.26806641 C22.70070783 310.09045318 23.28959341 307.91040682 23.86962891 305.72802734 C24.26867432 304.22876709 24.26867432 304.22876709 24.67578125 302.69921875 C25.02443237 301.37216919 25.02443237 301.37216919 25.38012695 300.01831055 C26 298 26 298 27 297 C28.77991924 296.90629376 30.56356739 296.88255729 32.34594727 296.88647461 C34.05760826 296.88658791 34.05760826 296.88658791 35.80384827 296.88670349 C37.0454924 296.89186478 38.28713654 296.89702606 39.56640625 296.90234375 C41.46204567 296.90446617 41.46204567 296.90446617 43.39598083 296.90663147 C46.76124889 296.91129418 50.1264499 296.9202852 53.49169922 296.93133545 C56.9234967 296.94155154 60.35530109 296.94612951 63.78710938 296.95117188 C70.52475824 296.9622262 77.26237525 296.9789829 84 297 C81.98649614 289.77437701 79.96968123 282.5496849 77.94882584 275.32611465 C77.01020393 271.97061469 76.07265517 268.61482314 75.13769531 265.25830078 C74.0586784 261.38480383 72.97474975 257.51269549 71.890625 253.640625 C71.56128967 252.455755 71.23195435 251.27088501 70.89263916 250.05010986 C69.06739157 243.54669608 67.09964175 237.12397904 64.90187073 230.73634338 C63.26945661 225.7834766 61.99985437 220.73263589 60.6875 215.6875 C58.21287277 206.32462468 55.53611877 197.05468234 52.66349792 187.80712891 C50.68710086 181.38881802 48.89101069 174.94438705 47.1875 168.44921875 C41.90551867 148.60209768 36.14384483 128.88675114 30.46630859 109.15014648 C28.82667064 103.45028283 27.1906012 97.74940229 25.55562592 92.04819965 C24.27340949 87.57845669 22.98938833 83.10923366 21.70484924 78.6401577 C21.10165636 76.5408825 20.49896287 74.44146372 19.89683533 72.34188271 C16.47684276 60.42107048 12.98064804 48.52827658 9.33840942 36.67326069 C7.10565383 29.40069778 5.0197033 22.10211732 3.0625 14.75 C2.76021484 13.63882812 2.45792969 12.52765625 2.14648438 11.3828125 C0 3.38095238 0 3.38095238 0 0 Z " fill="#2C2C2C" transform="translate(2076,342)"/>
<path d="M0 0 C18.67141141 -0.21028941 37.34258239 -0.36897179 56.01493263 -0.46630955 C64.68499981 -0.51270785 73.35433102 -0.5759568 82.02392578 -0.67895508 C89.58086334 -0.76869171 97.13726794 -0.82673078 104.69472349 -0.84679645 C108.69628911 -0.85852575 112.69633015 -0.88606249 116.69740677 -0.95157051 C120.4653529 -1.01276055 124.23115025 -1.03148714 127.99954605 -1.01796913 C129.38071891 -1.02044103 130.7619651 -1.03829319 132.14270782 -1.07284927 C142.57398302 -1.3210631 142.57398302 -1.3210631 146.12506771 1.96866417 C147.67399306 4.25700041 148.86867054 6.48376486 150 9 C150.59014893 9.97291992 151.18029785 10.94583984 151.78833008 11.94824219 C152.52152466 13.23456543 152.52152466 13.23456543 153.26953125 14.546875 C154.12393799 16.03828003 154.12393799 16.03828003 154.99560547 17.55981445 C155.89496826 19.1389563 155.89496826 19.1389563 156.8125 20.75 C158.14365085 23.07212609 159.47552739 25.39381847 160.80859375 27.71484375 C161.1513031 28.31205734 161.49401245 28.90927094 161.84710693 29.52458191 C165.64953019 36.14413017 169.50923032 42.72980784 173.375 49.3125 C173.72817291 49.91412964 174.08134583 50.51575928 174.44522095 51.13562012 C176.24387822 54.1996098 178.04312685 57.26325147 179.84277344 60.32666016 C183.04543931 65.7790803 186.24226999 71.2349208 189.43951416 76.69052124 C191.20943447 79.71048914 192.97973665 82.73023318 194.75 85.75 C195.45833516 86.95833226 196.16666849 88.1666656 196.875 89.375 C197.225625 89.973125 197.57625 90.57125 197.9375 91.1875 C252.125 183.625 252.125 183.625 253.18745422 185.43742371 C253.89593806 186.64601258 254.60442398 187.85460022 255.31291199 189.06318665 C257.08145979 192.08010023 258.84997154 195.09703494 260.6184082 198.11401367 C263.83314451 203.59831873 267.04816477 209.08245644 270.26449585 214.56582642 C277.75737994 227.34013637 285.24122541 240.11953851 292.69873047 252.91455078 C299.3874288 264.38658975 306.1079212 275.8399749 312.82666016 287.29443359 C316.03234269 292.75984483 319.23637859 298.22622131 322.44052124 303.6925354 C324.21027838 306.71173078 325.98014478 309.73086211 327.75 312.75 C328.45833386 313.95833303 329.16666719 315.16666636 329.875 316.375 C330.225625 316.973125 330.57625 317.57125 330.9375 318.1875 C349 349 367.0625 379.8125 385.125 410.625 C385.47556458 411.22301926 385.82612915 411.82103851 386.18731689 412.43717957 C386.89626998 413.64657551 387.60521365 414.85597696 388.31414795 416.06538391 C390.07542236 419.07000446 391.83685554 422.0745317 393.59863281 425.07885742 C396.90023479 430.70940318 400.20022752 436.34087456 403.49487305 441.97549438 C405.04066139 444.61894155 406.58731527 447.26188182 408.1340332 449.90478516 C408.8667238 451.15729978 409.59899651 452.41005896 410.33081055 453.66308594 C411.34966791 455.40753273 412.37012141 457.15104699 413.390625 458.89453125 C414.2573584 460.37723511 414.2573584 460.37723511 415.14160156 461.88989258 C416.80665881 464.81799259 416.80665881 464.81799259 418.26424789 466.63184643 C422.64478642 472.59105906 422.60564318 477.79318768 422.3125 485 C422.28994141 486.06089844 422.26738281 487.12179687 422.24414062 488.21484375 C422.1856597 490.81139699 422.10376454 493.40492866 422 496 C403.51120632 496.35082608 385.02309018 496.61511381 366.53165531 496.77718258 C357.94501885 496.85444522 349.36045326 496.95971324 340.77514648 497.1315918 C333.28958649 497.28138154 325.80552605 497.37793448 318.31850904 497.41132742 C314.35531257 497.43084366 310.39640452 497.47647611 306.43458748 497.58595085 C282.36184322 498.22571353 282.36184322 498.22571353 276.83329391 494.56552887 C273.58785106 491.14644891 271.97115278 487.40188488 270.64792442 482.92973137 C269.57113897 479.72271123 267.79260082 477.07197162 266 474.2109375 C264.66587751 471.93274816 263.33255901 469.65410271 262 467.375 C261.26636182 466.12169457 260.53263559 464.86844069 259.79882812 463.61523438 C258.28351816 461.02721472 256.76857633 458.43898014 255.25390625 455.85058594 C252.02380755 450.33139986 248.78903991 444.81495167 245.55444336 439.29840088 C243.7860872 436.2823894 242.01806095 433.26618454 240.25 430.25 C239.54166823 429.04166575 238.8333349 427.83333241 238.125 426.625 C236.70833333 424.20833333 235.29166667 421.79166667 233.875 419.375 C233.52438004 418.77688507 233.17376007 418.17877014 232.81251526 417.56253052 C232.10412584 416.35409852 231.39574165 415.14566346 230.68736267 413.93722534 C228.91743021 410.91787646 227.14740728 407.89858069 225.37719727 404.87939453 C222.17885458 399.42425006 218.98117527 393.96872228 215.78686523 388.51121521 C214.00418962 385.46554884 212.2209624 382.4202057 210.4375 379.375 C210.08592834 378.77464935 209.73435669 378.17429871 209.37213135 377.55575562 C204.23715189 368.78955525 199.06543618 360.04600602 193.875 351.3125 C187.97970914 341.39032764 182.18079523 331.41640858 176.42871094 321.41064453 C172.02138749 313.75062819 167.55470255 306.12836945 163.04736328 298.52685547 C158.56786662 290.97066972 154.12451257 283.39366545 149.6875 275.8125 C144.11581168 266.29292083 138.51106372 256.79415378 132.875 247.3125 C126.97962437 237.39037873 121.18079449 227.41640728 115.42871094 217.41064453 C111.02138749 209.75062819 106.55470255 202.12836945 102.04736328 194.52685547 C97.56786662 186.97066972 93.12451257 179.39366545 88.6875 171.8125 C83.11581168 162.29292083 77.51106372 152.79415378 71.875 143.3125 C65.97962437 133.39037873 60.18079449 123.41640728 54.42871094 113.41064453 C50.02138749 105.75062819 45.55470255 98.12836945 41.04736328 90.52685547 C36.93181703 83.58459515 32.84568168 76.62545092 28.76904297 69.66030884 C16.10466163 46.11813686 16.10466163 46.11813686 1.41549683 24.01416016 C-0.72003996 19.46674628 -0.31723829 15.14084153 -0.1875 10.1875 C-0.17396484 9.20845703 -0.16042969 8.22941406 -0.14648438 7.22070312 C-0.11125312 4.81323375 -0.06199265 2.40690436 0 0 Z " fill="#2C2C2C" transform="translate(3305,342)"/>
<path d="M0 0 C47.85 0 95.7 0 145 0 C145 163.68 145 327.36 145 496 C97.15 496 49.3 496 0 496 C0 332.32 0 168.64 0 0 Z " fill="#2D2D2D" transform="translate(2861,342)"/>
<path d="M0 0 C47.52 0 95.04 0 144 0 C144 163.68 144 327.36 144 496 C96.48 496 48.96 496 0 496 C0 332.32 0 168.64 0 0 Z " fill="#2C2C2C" transform="translate(1403,342)"/>
<path d="M0 0 C48.51 0 97.02 0 147 0 C153.76828457 23.68899601 153.76828457 23.68899601 156.5625 34.75 C158.42629499 42.03760191 160.31611921 49.30134896 162.5 56.5 C165.03730025 64.86361544 167.17595031 73.32343094 169.34375 81.7890625 C171.12788905 88.7248065 172.99625475 95.62464071 175 102.5 C177.34465669 110.5451131 179.48378066 118.63224258 181.5625 126.75 C183.59647197 134.69217626 185.7044679 142.58618582 188.08618164 150.43066406 C190.42943585 158.25102526 192.39191864 166.1716033 194.41625977 174.07910156 C195.98378476 180.17233949 197.60217365 186.2321272 199.4375 192.25 C202.08665507 200.94925246 204.28258833 209.76655842 206.52947998 218.57592773 C208.58883581 226.64151931 210.70820998 234.66994701 213.13671875 242.6328125 C215.11633022 249.20512258 216.79792161 255.85132715 218.5 262.5 C220.38691331 269.87029851 222.2895453 277.21958527 224.5 284.5 C227.03750422 292.86354648 229.17595353 301.32344352 231.34375 309.7890625 C233.12788905 316.7248065 234.99625475 323.62464071 237 330.5 C239.34465669 338.5451131 241.48378066 346.63224258 243.5625 354.75 C245.59647197 362.69217626 247.7044679 370.58618582 250.08618164 378.43066406 C252.42703697 386.24301924 254.38824077 394.15530699 256.40966797 402.05493164 C258.21066509 409.05799056 260.12901987 416.0027084 262.2265625 422.921875 C264.07532238 429.08846223 265.60090152 435.32345391 267.12988281 441.57568359 C268.41449297 446.78304967 269.81955426 451.92997184 271.375 457.0625 C273.70758691 464.78449517 275.77716915 472.56981925 277.8125 480.375 C278.12687012 481.57133057 278.44124023 482.76766113 278.76513672 484.00024414 C279.05533691 485.12164795 279.34553711 486.24305176 279.64453125 487.3984375 C279.90596924 488.40567871 280.16740723 489.41291992 280.43676758 490.45068359 C281 493 281 493 281 496 C236.45 496 191.9 496 146 496 C144.02 489.07 142.04 482.14 140 475 C138.70374761 470.70177245 137.39906639 466.41030177 136.0625 462.125 C135.38002701 459.91802481 134.69773912 457.71099238 134.015625 455.50390625 C133.02480285 452.30560462 132.03335854 449.10749807 131.04101562 445.90966797 C127.78771098 435.40804148 124.64355226 424.91004677 121.90893555 414.26074219 C119.46556102 404.80315515 116.67076587 395.44852132 113.90722656 386.08056641 C112.427714 381.0567533 110.96466353 376.02815785 109.5 371 C108.91670401 369.00129118 108.33337064 367.00259328 107.75 365.00390625 C106.57965417 360.99194506 105.41336286 356.97883513 104.25 352.96484375 C99.89261622 337.94525832 95.37318666 322.97998006 90.78076172 308.03076172 C83.31909458 283.73935402 76.06205477 259.39525284 68.9609375 234.99609375 C68.64801758 233.92133789 68.33509766 232.84658203 68.01269531 231.73925781 C67.45092323 229.80797315 66.89023773 227.87637181 66.33105469 225.94433594 C64.61797939 220.04423193 62.82693942 214.17091246 61.01318359 208.30102539 C59.38725498 203.00363243 57.81851708 197.68962215 56.25 192.375 C55.54821493 190.00129089 54.84639089 187.62759331 54.14453125 185.25390625 C53.78955566 184.05266113 53.43458008 182.85141602 53.06884766 181.61376953 C52.03110269 178.10515808 50.99071833 174.59734233 49.94921875 171.08984375 C45.27705354 155.35279758 40.65957992 139.60046647 36.08105469 123.8359375 C32.36103996 111.02818 28.64086885 98.22789697 24.56640625 85.52734375 C21.87998599 77.13291523 19.34348107 68.74883291 17.12890625 60.21484375 C13.10516043 44.94883537 8.45937728 29.80846071 3.6484375 14.7734375 C3.41656738 14.04382813 3.18469727 13.31421875 2.94580078 12.5625 C2.49230906 11.13678566 2.03512965 9.71223744 1.57373047 8.2890625 C0.65700093 5.40399708 0 3.0481427 0 0 Z " fill="#2C2C2C" transform="translate(2341,342)"/>
<path d="M0 0 C1.65322266 0.01740234 1.65322266 0.01740234 3.33984375 0.03515625 C4.44457031 0.04417969 5.54929687 0.05320312 6.6875 0.0625 C7.54214844 0.07410156 8.39679688 0.08570313 9.27734375 0.09765625 C11.70243292 6.30646888 13.68139326 12.56966403 15.52734375 18.97265625 C15.82890381 20.01059326 16.13046387 21.04853027 16.44116211 22.11791992 C18.99074761 30.95784912 21.36244323 39.84168152 23.72167969 48.73388672 C25.62498422 55.84516955 27.73116564 62.85487944 30.01245117 69.85253906 C32.11902266 76.3976851 33.90004396 83.01241804 35.65234375 89.66015625 C37.99504523 98.54159787 40.52698229 107.33393838 43.27734375 116.09765625 C45.98145002 124.71723793 48.4776899 133.36146767 50.77734375 142.09765625 C53.14282053 151.08061727 55.70750896 159.97698212 58.46484375 168.84765625 C58.80249756 169.93731689 59.14015137 171.02697754 59.48803711 172.1496582 C61.24793723 177.81700076 61.24793723 177.81700076 63.03417969 183.47607422 C63.64820937 185.40861902 64.24495342 187.3466343 64.83984375 189.28515625 C65.30583984 190.76048828 65.30583984 190.76048828 65.78125 192.265625 C66.75508186 197.82490139 65.11564287 203.11570905 63.65234375 208.47265625 C63.4826709 209.09785156 63.31299805 209.72304688 63.13818359 210.3671875 C61.13707189 217.69939937 59.05502321 225.00961841 56.99243164 232.32470703 C54.937857 239.64436921 52.98397122 246.98497989 51.08984375 254.34765625 C49.34169195 261.14086312 47.47300774 267.85124242 45.33984375 274.53515625 C43.85251362 279.52208669 42.57254306 284.55792031 41.27734375 289.59765625 C39.46706278 296.64162083 37.55150758 303.60527626 35.33984375 310.53515625 C33.85251362 315.52208669 32.57254306 320.55792031 31.27734375 325.59765625 C29.46706278 332.64162083 27.55150758 339.60527626 25.33984375 346.53515625 C23.85251362 351.52208669 22.57254306 356.55792031 21.27734375 361.59765625 C19.46706278 368.64162083 17.55150758 375.60527626 15.33984375 382.53515625 C13.85251362 387.52208669 12.57254306 392.55792031 11.27734375 397.59765625 C9.46706278 404.64162083 7.55150758 411.60527626 5.33984375 418.53515625 C3.85251362 423.52208669 2.57254306 428.55792031 1.27734375 433.59765625 C-0.53159377 440.63639333 -2.44388578 447.59547923 -4.65625 454.51953125 C-6.45714484 460.56209416 -7.98398716 466.67872758 -9.52929688 472.79101562 C-10.84079555 477.92801179 -12.26748481 482.95134938 -14.07202148 487.93847656 C-14.87261269 490.5952978 -15.26647808 493.36058723 -15.72265625 496.09765625 C-63.57265625 496.09765625 -111.42265625 496.09765625 -160.72265625 496.09765625 C-157.35384066 483.74533241 -157.35384066 483.74533241 -155.85546875 479.37109375 C-155.52998047 478.41146729 -155.20449219 477.45184082 -154.86914062 476.46313477 C-154.53205078 475.47627686 -154.19496094 474.48941895 -153.84765625 473.47265625 C-151.088113 465.29857363 -148.50005803 457.11279772 -146.12133789 448.82128906 C-144.57455623 443.52977395 -142.88604165 438.28602166 -141.1953125 433.0390625 C-140.47712522 430.80240808 -139.75920145 428.56566904 -139.04150391 426.32885742 C-138.66350647 425.15116791 -138.28550903 423.97347839 -137.89605713 422.76010132 C-135.87973974 416.46672638 -133.87741553 410.16890191 -131.875 403.87109375 C-131.45185648 402.54057053 -131.02870475 401.21004993 -130.60554504 399.87953186 C-129.73706189 397.14869691 -128.86867595 394.41783107 -128.00033569 391.68695068 C-125.46343321 383.70894505 -122.92451378 375.73158091 -120.38600731 367.75408554 C-119.70068628 365.60038354 -119.01537719 363.44667774 -118.33007812 361.29296875 C-117.99772518 360.24847407 -117.99772518 360.24847407 -117.65865803 359.18287849 C-116.24521086 354.74057864 -114.83238928 350.29808025 -113.41992188 345.85546875 C-111.41843331 339.56063474 -109.41531881 333.26632092 -107.41015625 326.97265625 C-107.10409454 326.01186157 -106.79803284 325.05106689 -106.48269653 324.06115723 C-102.79279084 312.48545899 -99.03975455 300.93640771 -95.15307617 289.42504883 C-92.97041168 282.93303671 -91.00883873 276.39987251 -89.11987305 269.81713867 C-87.56659821 264.50203974 -85.8699605 259.23512436 -84.171875 253.96484375 C-83.45273532 251.72508912 -82.73383285 249.48525832 -82.01513672 247.24536133 C-81.63943542 246.07494293 -81.26373413 244.90452454 -80.87664795 243.69863892 C-78.93769596 237.64822061 -77.01173069 231.59367961 -75.0859375 225.5390625 C-74.67937603 224.2610563 -74.27281064 222.98305135 -73.86624146 221.70504761 C-73.02518798 219.06113845 -72.18425451 216.41719116 -71.34338379 213.77322388 C-69.9959885 209.53673777 -68.64791234 205.30046845 -67.29980469 201.06420898 C-63.00176827 187.55731607 -58.70618998 174.04965329 -54.4193573 160.53919983 C-52.78091028 155.37553047 -51.14119356 150.21226454 -49.50119877 145.04908657 C-48.39228333 141.55756619 -47.28406495 138.0658282 -46.17764282 134.57351685 C-41.44739169 119.64398251 -36.65581163 104.73952407 -31.65142822 89.89930725 C-29.25939379 82.79155274 -27.07324814 75.65331534 -25.00390625 68.4453125 C-23.19050651 62.20448567 -21.16655281 56.02973708 -19.17138672 49.84521484 C-16.94350607 42.93163822 -14.74730317 36.00910022 -12.57421875 29.078125 C-12.02548309 27.33031879 -11.47673632 25.58251606 -10.92797852 23.8347168 C-10.10687713 21.21901758 -9.28682769 18.60301095 -8.46994019 15.98599243 C-7.7040408 13.53276627 -6.9344036 11.08074063 -6.1640625 8.62890625 C-5.93212189 7.88219162 -5.70018127 7.13547699 -5.46121216 6.36613464 C-3.49399516 0.12532264 -3.49399516 0.12532264 0 0 Z " fill="#2C2C2C" transform="translate(2033.72265625,341.90234375)"/>
<path d="M0 0 C47.52 0 95.04 0 144 0 C143.13071364 4.34643181 142.01947714 8.51388377 140.75 12.75 C140.52747559 13.50023437 140.30495117 14.25046875 140.07568359 15.0234375 C139.38572962 17.34954027 138.69316821 19.67485326 138 22 C137.20581331 24.66592587 136.41385772 27.33249221 135.625 30 C135.42277832 30.68328369 135.22055664 31.36656738 135.01220703 32.07055664 C133.45734539 37.36006487 131.97901501 42.66896512 130.51098633 47.9831543 C127.73268629 58.03142877 124.77872396 67.98697308 121.55517578 77.90112305 C119.22625041 85.12731529 117.21815379 92.41432048 115.26928711 99.75073242 C113.27913742 107.16425396 110.97945072 114.45181962 108.60546875 121.75 C106.5506577 128.12262985 104.7189797 134.52925697 103 141 C100.75362168 149.4485814 98.22806538 157.77284709 95.53955078 166.09057617 C93.08905556 173.67540994 90.80671937 181.29884991 88.59277344 188.95556641 C87.5727431 192.4735788 86.53517571 195.98642104 85.5 199.5 C85.08070214 200.92707539 84.66143123 202.3541587 84.2421875 203.78125 C83.43932052 206.51174925 82.63193307 209.24084059 81.8203125 211.96875 C79.92080772 218.36835572 78.0555989 224.77464875 76.26953125 231.20703125 C75.96644043 232.29822266 75.66334961 233.38941406 75.35107422 234.51367188 C74.75991885 236.64827673 74.17151799 238.78364716 73.58642578 240.91992188 C72.17500171 246.02105943 70.67320787 251.06142883 68.97265625 256.07421875 C67.07819237 261.66195341 65.49946403 267.29551727 64 273 C60.94656489 284.41984733 60.94656489 284.41984733 59 290 C57.12307501 295.39133187 55.65726999 300.8624106 54.1875 306.375 C51.89159323 314.95975855 49.34095569 323.42872418 46.60839844 331.88378906 C43.85293013 340.4114622 41.27141021 348.98539041 38.72070312 357.57617188 C37.78763327 360.71421981 36.84689511 363.84993414 35.9050293 366.98535156 C35.42127856 368.59642753 34.93838682 370.20776164 34.45629883 371.81933594 C32.95292232 376.84242733 31.43360763 381.86033468 29.90234375 386.875 C25.56903748 401.11999205 21.45852055 415.38462133 17.73876953 429.80224609 C16.05046394 436.29676919 14.17925385 442.66287688 12.00830078 449.01220703 C10.22214536 454.30493586 8.62632792 459.65645975 7 465 C5.64000881 469.43988574 4.27629336 473.87859697 2.90795898 478.31591797 C2.5044793 479.62644117 2.10217132 480.93732559 1.70092773 482.24853516 C1.11214912 484.17179997 0.51904211 486.09373807 -0.07421875 488.015625 C-0.42057373 489.14258789 -0.76692871 490.26955078 -1.1237793 491.43066406 C-2 494 -2 494 -3 495 C-4.68608966 495.07205511 -6.37500659 495.08386068 -8.0625 495.0625 C-8.98160156 495.05347656 -9.90070312 495.04445313 -10.84765625 495.03515625 C-11.55792969 495.02355469 -12.26820313 495.01195312 -13 495 C-16.59901958 482.9926515 -19.96317811 470.93114995 -23.23388672 458.83056641 C-24.48218961 454.21844923 -25.74155756 449.60935872 -27 445 C-27.50005511 443.1666817 -28.00005506 441.33334835 -28.5 439.5 C-28.7475 438.5925 -28.995 437.685 -29.25 436.75 C-36 412 -42.75 387.25 -49.5 362.5 C-49.74733887 361.59314453 -49.99467773 360.68628906 -50.24951172 359.75195312 C-50.75124942 357.9121394 -51.25287641 356.07229547 -51.75439453 354.23242188 C-52.97691758 349.74798867 -54.20113468 345.26403532 -55.4296875 340.78125 C-55.9116184 339.02087715 -56.39338763 337.26046002 -56.875 335.5 C-57.11589355 334.61965088 -57.35678711 333.73930176 -57.60498047 332.83227539 C-59.09717199 327.36138938 -60.56485659 321.88434917 -62.015625 316.40234375 C-62.19010162 315.74404572 -62.36457825 315.08574768 -62.54434204 314.40750122 C-63.40243035 311.16963614 -64.25798379 307.93117164 -65.10888672 304.69140625 C-66.66727043 298.80294775 -68.31858394 293.00277197 -70.2421875 287.22265625 C-73.28545134 277.36535551 -72.01912131 269.58315368 -69.25 259.8125 C-68.83729858 258.2970459 -68.83729858 258.2970459 -68.41625977 256.75097656 C-67.8680273 254.74030952 -67.31486823 252.73097808 -66.75634766 250.72314453 C-65.78868225 247.23917426 -64.86182817 243.74571025 -63.9375 240.25 C-63.62554688 239.0846875 -63.31359375 237.919375 -62.9921875 236.71875 C-61.18994396 229.96388445 -59.41772818 223.20109589 -57.64111328 216.43945312 C-57.00989248 214.03764116 -56.37811981 211.63597519 -55.74609375 209.234375 C-55.54056885 208.45336426 -55.33504395 207.67235352 -55.12329102 206.86767578 C-54.70603429 205.28265593 -54.28855197 203.69769544 -53.87084961 202.11279297 C-52.84801067 198.23037439 -51.82918097 194.34701155 -50.8203125 190.4609375 C-48.81198414 182.74594702 -46.74240726 175.05485455 -44.5612793 167.38671875 C-41.07564964 155.12322375 -37.88528449 142.8057706 -34.84057617 130.42700195 C-31.95203705 118.6991604 -28.88846418 107.03038233 -25.56567383 95.41748047 C-22.06078195 83.14983436 -18.88767326 70.81545382 -15.84082031 58.42797852 C-13.94460113 50.72911337 -11.97123974 43.05847584 -9.9128418 35.40185547 C-9.14750116 32.54968739 -8.39543402 29.6949637 -7.65625 26.8359375 C-7.46160156 26.08570313 -7.26695312 25.33546875 -7.06640625 24.5625 C-6.68690599 23.09684381 -6.30932005 21.63069069 -5.93359375 20.1640625 C-4.1617261 13.35821324 -2.07572274 6.74609889 0 0 Z " fill="#2C2C2C" transform="translate(2667,342)"/>
<path d="M0 0 C2.73715348 2.73715348 4.23192499 4.88618346 6.1171875 8.20703125 C6.71732666 9.25713379 7.31746582 10.30723633 7.93579102 11.38916016 C8.57572998 12.5188623 9.21566895 13.64856445 9.875 14.8125 C11.23338523 17.19271888 12.59531197 19.57090611 13.95703125 21.94921875 C14.47060432 22.8477356 14.47060432 22.8477356 14.99455261 23.7644043 C18.13250648 29.24870489 21.33655182 34.69213961 24.5625 40.125 C28.98773085 47.5872599 33.383552 55.06568269 37.75 62.5625 C42.98503602 71.55050033 48.23688304 80.52842938 53.5 89.5 C59.24441228 99.29269165 64.97495942 109.09329065 70.69140625 118.90234375 C75.28157986 126.77569394 79.88887184 134.63891337 84.5 142.5 C89.73895281 151.43180963 94.97129372 160.36737725 100.1875 169.3125 C101.03852295 170.77175903 101.03852295 170.77175903 101.90673828 172.26049805 C104.74618766 177.13062087 107.58326181 182.00211534 110.41796875 186.875 C110.9565451 187.79704381 111.49512146 188.71908762 112.05001831 189.66907215 C113.2038386 191.65646242 114.34774527 193.64967081 115.47772217 195.65071392 C118.44929503 200.863982 121.52336308 205.8053055 125.14086914 210.59638977 C139.2242976 230.06737762 139.17293792 248.31618435 138.62230301 271.69066024 C138.5207391 276.74704628 138.51276505 281.80366742 138.49389648 286.86091614 C138.44460739 296.39189719 138.31393659 305.91986272 138.15230465 315.44952899 C137.9382127 328.35867651 137.85330204 341.26867728 137.76026917 354.17915821 C137.61082973 374.45502108 137.29182089 394.72452757 137 415 C91.79 415 46.58 415 0 415 C0 278.05 0 141.1 0 0 Z " fill="#2D2D2D" transform="translate(3305,423)"/>
<path d="M0 0 C45.21 0 90.42 0 137 0 C137 136.62 137 273.24 137 414 C134.33281639 410.66602049 132.32347929 408.05074488 130.328125 404.4296875 C129.83715332 403.54756592 129.34618164 402.66544434 128.84033203 401.7565918 C128.31552246 400.8056665 127.79071289 399.85474121 127.25 398.875 C122.33348935 390.06854162 117.28955967 381.35075383 112.125 372.6875 C106.84827312 363.83022724 101.63376237 354.94108838 96.5 346 C91.402485 337.12463464 86.23311569 328.29608807 81 319.5 C75.13177472 309.63638729 69.36079919 299.72185459 63.64453125 289.76953125 C59.15953416 281.97485078 54.59797206 274.22850623 50 266.5 C44.76688279 257.70390936 39.59766579 248.87528042 34.5 240 C28.7162771 229.93048032 22.83932565 219.92104303 16.89257812 209.94726562 C15.65876225 207.87523833 14.44902292 205.78868993 13.26344299 203.68869019 C11.76917404 201.13235118 10.13431883 198.90161146 8.23631287 196.63223267 C-3.90180802 180.93621096 -1.41924267 161.29717955 -1.11533332 142.52434945 C-1.04589669 137.50241816 -1.04005516 132.48039088 -1.02705383 127.45805359 C-0.99305876 117.97715188 -0.90306164 108.49766931 -0.79220945 99.01738852 C-0.64547624 86.18601639 -0.58673409 73.35424767 -0.52268505 60.52224636 C-0.41969577 40.34710421 -0.20043357 20.17495471 0 0 Z " fill="#2C2C2C" transform="translate(3590,342)"/>
<path d="M0 0 C7.3145855 3.65729275 14.45149884 7.28366156 21.5 11.375 C23.32804774 12.42721757 25.15617718 13.47929321 26.984375 14.53125 C27.95181641 15.08941406 28.91925781 15.64757812 29.91601562 16.22265625 C35.52026245 19.45246284 41.13483876 22.66422117 46.75 25.875 C47.34096466 26.21307678 47.93192932 26.55115356 48.540802 26.8994751 C58.01172946 32.31598723 67.51875302 37.66536738 77.04443359 42.98510742 C83.67211822 46.68900058 90.28224867 50.42178804 96.875 54.1875 C98.14234985 54.90752197 98.14234985 54.90752197 99.43530273 55.64208984 C103.78117119 58.11980199 108.08545377 60.64878539 112.3515625 63.26171875 C113.64924561 64.04542847 113.64924561 64.04542847 114.97314453 64.8449707 C116.61630203 65.83991447 118.25072848 66.84947337 119.87451172 67.87573242 C120.60686035 68.3163501 121.33920898 68.75696777 122.09375 69.2109375 C122.72990234 69.60587402 123.36605469 70.00081055 124.02148438 70.40771484 C127.59593596 71.47775674 130.27429004 69.37761829 133.41821289 67.74169922 C134.2611792 67.26748535 135.10414551 66.79327148 135.97265625 66.3046875 C137.42381836 65.49064453 137.42381836 65.49064453 138.90429688 64.66015625 C139.94650391 64.07105469 140.98871094 63.48195313 142.0625 62.875 C143.16013672 62.25753906 144.25777344 61.64007812 145.38867188 61.00390625 C154.79816079 55.70143875 164.17348552 50.3393759 173.54418945 44.96875 C181.25176271 40.55401811 188.99037258 36.19767312 196.75 31.875 C204.99417388 27.28113739 213.17387313 22.59078378 221.3125 17.8125 C228.96849823 13.31896713 236.66110626 8.90725425 244.4375 4.625 C245.71717651 3.91887573 245.71717651 3.91887573 247.02270508 3.19848633 C252.87068835 0 252.87068835 0 254 0 C254 56.43 254 112.86 254 171 C250.23589007 169.49435603 246.96459936 167.96798631 243.44921875 166.015625 C242.37051514 165.4172583 241.29181152 164.8188916 240.18041992 164.20239258 C239.01599719 163.55180279 237.85169354 162.90099982 236.6875 162.25 C235.79437607 161.75262833 235.79437607 161.75262833 234.88320923 161.24520874 C225.41903571 155.97426107 216.04845121 150.55527973 206.71166992 145.06152344 C200.20614763 141.24747726 193.63749168 137.57888789 187 134 C179.26699069 129.82954454 171.64032097 125.50870169 164.0625 121.0625 C163.07523926 120.48556396 162.08797852 119.90862793 161.07080078 119.31420898 C156.97391454 116.91929626 152.87871641 114.52226989 148.79931641 112.09765625 C145.66642849 110.23760806 142.52195404 108.39862171 139.375 106.5625 C138.42117432 105.98830322 137.46734863 105.41410645 136.48461914 104.82250977 C135.5899292 104.30487061 134.69523926 103.78723145 133.7734375 103.25390625 C132.99403809 102.79314697 132.21463867 102.3323877 131.41162109 101.85766602 C127.35406328 100.41464105 124.2300737 101.44235887 120.40478516 103.17651367 C119.54159668 103.66869385 118.6784082 104.16087402 117.7890625 104.66796875 C116.31203857 105.5021936 116.31203857 105.5021936 114.80517578 106.35327148 C113.75571777 106.95856689 112.70625977 107.5638623 111.625 108.1875 C110.5201123 108.815354 109.41522461 109.44320801 108.27685547 110.09008789 C99.86868823 114.88253992 91.51654263 119.77137797 83.17114258 124.67211914 C74.47640249 129.76253548 65.6792054 134.65738016 56.86254883 139.53271484 C44.29670339 146.48411053 31.81444849 153.57269113 19.4375 160.85546875 C17.7836731 161.82697876 17.7836731 161.82697876 16.09643555 162.81811523 C13.94182297 164.08563805 11.78955415 165.35715516 9.63989258 166.63305664 C8.67204834 167.2027417 7.7042041 167.77242676 6.70703125 168.359375 C5.8456958 168.86952148 4.98436035 169.37966797 4.09692383 169.90527344 C2 171 2 171 0 171 C0 114.57 0 58.14 0 0 Z " fill="#2C2C2C" transform="translate(608,528)"/>
<path d="M0 0 C60.39 0 120.78 0 183 0 C183 36.63 183 73.26 183 111 C122.61 111 62.22 111 0 111 C0 74.37 0 37.74 0 0 Z " fill="#2D2D2D" transform="translate(3036,727)"/>
<path d="M0 0 C60.39 0 120.78 0 183 0 C183 36.63 183 73.26 183 111 C122.61 111 62.22 111 0 111 C0 74.37 0 37.74 0 0 Z " fill="#2D2D2D" transform="translate(3036,342)"/>
<path d="M0 0 C49.17 0 98.34 0 149 0 C149 36.3 149 72.6 149 110 C99.83 110 50.66 110 0 110 C0 73.7 0 37.4 0 0 Z " fill="#2C2C2C" transform="translate(3036,532)"/>
</svg>
